# xmcd CD database file
#
# Track frame offsets:
#	150
#	26420
#	58531
#	88061
#	121924
#	144909
#	177540
#	212642
#	227813
#	256368
#
# Disc length: 3757 seconds
#
# Revision: 0
# Processed by: cddbd v1.4PL0 Copyright (c) Steve Scherf et al.
# Submitted via: CD2WAV32(EN) R3.19
#
DISCID=860eab0a
DTITLE=SEGA - Rez
DYEAR=1900
DGENRE=
TTITLE0=Buggie Running Beeps
TTITLE1=Protocol Rain
TTITLE2=Creation The State of Art
TTITLE3=Rock is Sponge
TTITLE4=Fear
TTITLE5=Boss Attacks
TTITLE6=F6 GS
TTITLE7=Octaeder
TTITLE8=Creative State
TTITLE9=P project
EXTD=
EXTT0=
EXTT1=
EXTT2=
EXTT3=
EXTT4=
EXTT5=
EXTT6=
EXTT7=
EXTT8=
EXTT9=
PLAYORDER=
